{
  "accessors": [
    {
      "bufferView": 2,
      "componentType": 5126,
      "count": 36619,
      "max": [
        0.21743281185626984,
        0.24737901985645294,
        0.4331372082233429
      ],
      "min": [
        -0.2177431583404541,
        -0.088876321911811829,
        0.0020006566774100065
      ],
      "type": "VEC3"
    },
    {
      "bufferView": 2,
      "byteOffset": 439428,
      "componentType": 5126,
      "count": 36619,
      "max": [
        0.99998903274536133,
        0.99999827146530151,
        0.99968433380126953
      ],
      "min": [
        -0.99992620944976807,
        -0.99998551607131958,
        -0.99999356269836426
      ],
      "type": "VEC3"
    },
    {
      "bufferView": 3,
      "componentType": 5126,
      "count": 36619,
      "max": [
        0.99994426965713501,
        0.99997246265411377,
        0.99998807907104492,
        1
      ],
      "min": [
        -1,
        -0.99995690584182739,
        -0.99999624490737915,
        -1
      ],
      "type": "VEC4"
    },
    {
      "bufferView": 1,
      "componentType": 5126,
      "count": 36619,
      "max": [
        0.97197818756103516,
        0.99041521549224854
      ],
      "min": [
        0.0034638312645256519,
        0.029031140729784966
      ],
      "type": "VEC2"
    },
    {
      "bufferView": 0,
      "componentType": 5125,
      "count": 149382,
      "max": [
        36618
      ],
      "min": [
        0
      ],
      "type": "SCALAR"
    }
  ],
  "asset": {
    "extras": {
      "author": "CoryRichards (https://sketchfab.com/CoryRichards)",
      "license": "CC-BY-4.0 (http://creativecommons.org/licenses/by/4.0/)",
      "source": "https://sketchfab.com/3d-models/whimsicott-pokemon-7bc5998550464c11a982933635db22ba",
      "title": "Whimsicott (Pokemon)"
    },
    "generator": "Sketchfab-7.15.0",
    "version": "2.0"
  },
  "bufferViews": [
    {
      "buffer": 0,
      "byteLength": 597528,
      "byteOffset": 0,
      "name": "floatBufferViews",
      "target": 34963
    },
    {
      "buffer": 0,
      "byteLength": 292952,
      "byteOffset": 597528,
      "byteStride": 8,
      "name": "floatBufferViews",
      "target": 34962
    },
    {
      "buffer": 0,
      "byteLength": 878856,
      "byteOffset": 890480,
      "byteStride": 12,
      "name": "floatBufferViews",
      "target": 34962
    },
    {
      "buffer": 0,
      "byteLength": 585904,
      "byteOffset": 1769336,
      "byteStride": 16,
      "name": "floatBufferViews",
      "target": 34962
    }
  ],
  "buffers": [
    {
      "byteLength": 2355240,
      "uri": "scene.bin"
    }
  ],
  "images": [
    {
      "uri": "textures/whimsicott_mat_baseColor.jpeg"
    },
    {
      "uri": "textures/whimsicott_mat_normal.png"
    }
  ],
  "materials": [
    {
      "doubleSided": true,
      "emissiveFactor": [
        0,
        0,
        0
      ],
      "name": "whimsicott_mat",
      "normalTexture": {
        "index": 1,
        "scale": 1,
        "texCoord": 0
      },
      "pbrMetallicRoughness": {
        "baseColorFactor": [
          1,
          1,
          1,
          1
        ],
        "baseColorTexture": {
          "index": 0,
          "texCoord": 0
        },
        "metallicFactor": 0,
        "roughnessFactor": 1
      }
    }
  ],
  "meshes": [
    {
      "name": "green_whimsicott_mat_0",
      "primitives": [
        {
          "attributes": {
            "NORMAL": 1,
            "POSITION": 0,
            "TANGENT": 2,
            "TEXCOORD_0": 3
          },
          "indices": 4,
          "material": 0,
          "mode": 4
        }
      ]
    }
  ],
  "nodes": [
    {
      "children": [
        1
      ],
      "name": "RootNode (gltf orientation matrix)",
      "rotation": [
        -0.70710678118654746,
        -0,
        -0,
        0.70710678118654757
      ]
    },
    {
      "children": [
        2
      ],
      "name": "RootNode (model correction matrix)"
    },
    {
      "children": [
        3
      ],
      "matrix": [
        1,
        0,
        0,
        0,
        0,
        0,
        1,
        0,
        0,
        -1,
        0,
        0,
        0,
        0,
        0,
        1
      ],
      "name": "2ddd19e305fa4b0ea983b334c80c305c.fbx"
    },
    {
      "children": [
        4
      ],
      "name": "RootNode"
    },
    {
      "children": [
        5
      ],
      "matrix": [
        100,
        0,
        0,
        0,
        0,
        -1.6292067939183141e-05,
        -99.999999999998678,
        0,
        0,
        99.999999999998678,
        -1.6292067939183141e-05,
        0,
        0,
        0,
        0,
        1
      ],
      "name": "green"
    },
    {
      "mesh": 0,
      "name": "green_whimsicott_mat_0"
    }
  ],
  "samplers": [
    {
      "magFilter": 9729,
      "minFilter": 9987,
      "wrapS": 10497,
      "wrapT": 10497
    }
  ],
  "scene": 0,
  "scenes": [
    {
      "name": "OSG_Scene",
      "nodes": [
        0
      ]
    }
  ],
  "textures": [
    {
      "sampler": 0,
      "source": 0
    },
    {
      "sampler": 0,
      "source": 1
    }
  ]
}

