{
  "accessors": [
    {
      "bufferView": 2,
      "componentType": 5126,
      "count": 30,
      "max": [
        0.90280002355575562,
        -0.6310499906539917,
        4.9678702354431152
      ],
      "min": [
        -0.90280002355575562,
        -1.3600599765777588,
        4.0637898445129395
      ],
      "type": "VEC3"
    },
    {
      "bufferView": 2,
      "byteOffset": 360,
      "componentType": 5126,
      "count": 30,
      "max": [
        0.90407496690750122,
        -0.41763156652450562,
        0.20753461122512817
      ],
      "min": [
        -0.90407496690750122,
        -0.57785892486572266,
        -0.15262414515018463
      ],
      "type": "VEC3"
    },
    {
      "bufferView": 3,
      "componentType": 5126,
      "count": 30,
      "max": [
        0.58492106199264526,
        0.90859752893447876,
        0.035271186381578445,
        1
      ],
      "min": [
        -0.58492112159729004,
        0.81028348207473755,
        -0.14926987886428833,
        -1
      ],
      "type": "VEC4"
    },
    {
      "bufferView": 1,
      "componentType": 5126,
      "count": 30,
      "max": [
        0.47266000509262085,
        0.99608999490737915
      ],
      "min": [
        0.015619999729096889,
        0.75391000509262085
      ],
      "type": "VEC2"
    },
    {
      "bufferView": 0,
      "componentType": 5125,
      "count": 108,
      "max": [
        29
      ],
      "min": [
        0
      ],
      "type": "SCALAR"
    },
    {
      "bufferView": 2,
      "byteOffset": 720,
      "componentType": 5126,
      "count": 832,
      "max": [
        2.4508800506591797,
        3.9005899429321289,
        5.4843001365661621
      ],
      "min": [
        -2.4508800506591797,
        -1.8806500434875488,
        0
      ],
      "type": "VEC3"
    },
    {
      "bufferView": 2,
      "byteOffset": 10704,
      "componentType": 5126,
      "count": 832,
      "max": [
        0.99973630905151367,
        0.99999314546585083,
        0.9951903223991394
      ],
      "min": [
        -0.99973630905151367,
        -0.99869871139526367,
        -1
      ],
      "type": "VEC3"
    },
    {
      "bufferView": 3,
      "byteOffset": 480,
      "componentType": 5126,
      "count": 832,
      "max": [
        1,
        0.99965840578079224,
        0.99994277954101562,
        1
      ],
      "min": [
        -1,
        -0.99551314115524292,
        -0.99999308586120605,
        -1
      ],
      "type": "VEC4"
    },
    {
      "bufferView": 1,
      "byteOffset": 240,
      "componentType": 5126,
      "count": 832,
      "max": [
        0.99300998449325562,
        0.99066001176834106
      ],
      "min": [
        0.0096399998292326927,
        0.0082999998703598976
      ],
      "type": "VEC2"
    },
    {
      "bufferView": 0,
      "byteOffset": 432,
      "componentType": 5125,
      "count": 4014,
      "max": [
        831
      ],
      "min": [
        0
      ],
      "type": "SCALAR"
    }
  ],
  "asset": {
    "extras": {
      "author": "akennedy007 (https://sketchfab.com/akennedy007)",
      "license": "CC-BY-4.0 (http://creativecommons.org/licenses/by/4.0/)",
      "source": "https://sketchfab.com/models/d0eecc4ffc624558858ca91b0050a497",
      "title": "Charmander"
    },
    "generator": "Sketchfab-3.27.4",
    "version": "2.0"
  },
  "bufferViews": [
    {
      "buffer": 0,
      "byteLength": 16488,
      "byteOffset": 0,
      "name": "floatBufferViews",
      "target": 34963
    },
    {
      "buffer": 0,
      "byteLength": 6896,
      "byteOffset": 16488,
      "byteStride": 8,
      "name": "floatBufferViews",
      "target": 34962
    },
    {
      "buffer": 0,
      "byteLength": 20688,
      "byteOffset": 23384,
      "byteStride": 12,
      "name": "floatBufferViews",
      "target": 34962
    },
    {
      "buffer": 0,
      "byteLength": 13792,
      "byteOffset": 44072,
      "byteStride": 16,
      "name": "floatBufferViews",
      "target": 34962
    }
  ],
  "buffers": [
    {
      "byteLength": 57864,
      "uri": "scene.bin"
    }
  ],
  "extensionsUsed": [
    "KHR_materials_unlit"
  ],
  "images": [
    {
      "uri": "textures/mat2_baseColor.png"
    },
    {
      "uri": "textures/mat1_baseColor.png"
    }
  ],
  "materials": [
    {
      "doubleSided": true,
      "emissiveFactor": [
        0,
        0,
        0
      ],
      "extensions": {
        "KHR_materials_unlit": {}
      },
      "name": "mat1",
      "pbrMetallicRoughness": {
        "baseColorFactor": [
          1,
          1,
          1,
          1
        ],
        "baseColorTexture": {
          "index": 1,
          "texCoord": 0
        },
        "metallicFactor": 0,
        "roughnessFactor": 1
      }
    },
    {
      "doubleSided": true,
      "emissiveFactor": [
        0,
        0,
        0
      ],
      "extensions": {
        "KHR_materials_unlit": {}
      },
      "name": "mat2",
      "pbrMetallicRoughness": {
        "baseColorFactor": [
          1,
          1,
          1,
          1
        ],
        "baseColorTexture": {
          "index": 0,
          "texCoord": 0
        },
        "metallicFactor": 0,
        "roughnessFactor": 1
      }
    }
  ],
  "meshes": [
    {
      "name": "polygon0_mat2_0",
      "primitives": [
        {
          "attributes": {
            "NORMAL": 1,
            "POSITION": 0,
            "TANGENT": 2,
            "TEXCOORD_0": 3
          },
          "indices": 4,
          "material": 1,
          "mode": 4
        }
      ]
    },
    {
      "name": "polygon1_mat1_0",
      "primitives": [
        {
          "attributes": {
            "NORMAL": 6,
            "POSITION": 5,
            "TANGENT": 7,
            "TEXCOORD_0": 8
          },
          "indices": 9,
          "material": 0,
          "mode": 4
        }
      ]
    }
  ],
  "nodes": [
    {
      "children": [
        1
      ],
      "name": "RootNode (gltf orientation matrix)",
      "rotation": [
        -0.70710678118654746,
        -0,
        -0,
        0.70710678118654757
      ]
    },
    {
      "children": [
        2
      ],
      "name": "RootNode (model correction matrix)"
    },
    {
      "children": [
        3,
        5
      ],
      "name": "Root"
    },
    {
      "children": [
        4
      ],
      "name": "polygon0_mat2"
    },
    {
      "mesh": 0,
      "name": "polygon0_mat2_0"
    },
    {
      "children": [
        6
      ],
      "name": "polygon1_mat1"
    },
    {
      "mesh": 1,
      "name": "polygon1_mat1_0"
    }
  ],
  "samplers": [
    {
      "magFilter": 9729,
      "minFilter": 9987,
      "wrapS": 10497,
      "wrapT": 10497
    }
  ],
  "scene": 0,
  "scenes": [
    {
      "name": "OSG_Scene",
      "nodes": [
        0
      ]
    }
  ],
  "textures": [
    {
      "sampler": 0,
      "source": 0
    },
    {
      "sampler": 0,
      "source": 1
    }
  ]
}

