{
  "accessors": [
    {
      "bufferView": 1,
      "componentType": 5126,
      "count": 476,
      "max": [
        1.5015619993209839,
        1.499750018119812,
        2.4132571220397949
      ],
      "min": [
        0,
        0.095952033996582031,
        0.40822398662567139
      ],
      "type": "VEC3"
    },
    {
      "bufferView": 1,
      "byteOffset": 5712,
      "componentType": 5126,
      "count": 476,
      "max": [
        1,
        1,
        1
      ],
      "min": [
        -1,
        -1,
        -0.99983525276184082
      ],
      "type": "VEC3"
    },
    {
      "bufferView": 2,
      "componentType": 5126,
      "count": 476,
      "max": [
        1,
        0.99983680248260498,
        0.99926233291625977,
        1
      ],
      "min": [
        -0.98882347345352173,
        -0.99983680248260498,
        -0.99987024068832397,
        -1
      ],
      "type": "VEC4"
    },
    {
      "bufferView": 0,
      "componentType": 5125,
      "count": 2568,
      "max": [
        475
      ],
      "min": [
        0
      ],
      "type": "SCALAR"
    },
    {
      "bufferView": 1,
      "byteOffset": 11424,
      "componentType": 5126,
      "count": 394,
      "max": [
        0.89625400304794312,
        0.29890602827072144,
        1.5326460599899292
      ],
      "min": [
        0.60530799627304077,
        0,
        1.3152250051498413
      ],
      "type": "VEC3"
    },
    {
      "bufferView": 1,
      "byteOffset": 16152,
      "componentType": 5126,
      "count": 394,
      "max": [
        0.97958135604858398,
        0.99186861515045166,
        0.99959033727645874
      ],
      "min": [
        -0.97958135604858398,
        -0.99669748544692993,
        -0.99999874830245972
      ],
      "type": "VEC3"
    },
    {
      "bufferView": 2,
      "byteOffset": 7616,
      "componentType": 5126,
      "count": 394,
      "max": [
        1,
        0.99296474456787109,
        0.5497359037399292,
        1
      ],
      "min": [
        -0.75148433446884155,
        -0.98997890949249268,
        -0.52954864501953125,
        -1
      ],
      "type": "VEC4"
    },
    {
      "bufferView": 0,
      "byteOffset": 10272,
      "componentType": 5125,
      "count": 1920,
      "max": [
        393
      ],
      "min": [
        0
      ],
      "type": "SCALAR"
    },
    {
      "bufferView": 1,
      "byteOffset": 20880,
      "componentType": 5126,
      "count": 523,
      "max": [
        1.3204950094223022,
        1.4488461017608643,
        2.8668191432952881
      ],
      "min": [
        0.14130502939224243,
        0.42132702469825745,
        0
      ],
      "type": "VEC3"
    },
    {
      "bufferView": 1,
      "byteOffset": 27156,
      "componentType": 5126,
      "count": 523,
      "max": [
        1,
        0.99816924333572388,
        1
      ],
      "min": [
        -1,
        -0.99988210201263428,
        -1
      ],
      "type": "VEC3"
    },
    {
      "bufferView": 2,
      "byteOffset": 13920,
      "componentType": 5126,
      "count": 523,
      "max": [
        1,
        1,
        0.9873078465461731,
        1
      ],
      "min": [
        -1,
        -1,
        -0.9804806113243103,
        -1
      ],
      "type": "VEC4"
    },
    {
      "bufferView": 0,
      "byteOffset": 17952,
      "componentType": 5125,
      "count": 2580,
      "max": [
        522
      ],
      "min": [
        0
      ],
      "type": "SCALAR"
    },
    {
      "bufferView": 1,
      "byteOffset": 33432,
      "componentType": 5126,
      "count": 670,
      "max": [
        1.2587199211120605,
        0.41288504004478455,
        1.6383140087127686
      ],
      "min": [
        0.24274098873138428,
        0.17221605777740479,
        1.3888510465621948
      ],
      "type": "VEC3"
    },
    {
      "bufferView": 1,
      "byteOffset": 41472,
      "componentType": 5126,
      "count": 670,
      "max": [
        0.99661850929260254,
        0.99872714281082153,
        0.99389421939849854
      ],
      "min": [
        -0.99661850929260254,
        -0.91641730070114136,
        -0.99389421939849854
      ],
      "type": "VEC3"
    },
    {
      "bufferView": 2,
      "byteOffset": 22288,
      "componentType": 5126,
      "count": 670,
      "max": [
        0.99929773807525635,
        0.40354606509208679,
        0.92396974563598633,
        1
      ],
      "min": [
        -0.99950850009918213,
        -0.37626570463180542,
        -0.93078523874282837,
        1
      ],
      "type": "VEC4"
    },
    {
      "bufferView": 0,
      "byteOffset": 28272,
      "componentType": 5125,
      "count": 3480,
      "max": [
        669
      ],
      "min": [
        0
      ],
      "type": "SCALAR"
    },
    {
      "bufferView": 1,
      "byteOffset": 49512,
      "componentType": 5126,
      "count": 250,
      "max": [
        1.2230030298233032,
        0.23897802829742432,
        1.6288820505142212
      ],
      "min": [
        0.28027099370956421,
        0.16265904903411865,
        1.4651260375976562
      ],
      "type": "VEC3"
    },
    {
      "bufferView": 1,
      "byteOffset": 52512,
      "componentType": 5126,
      "count": 250,
      "max": [
        0.72005116939544678,
        -0.37811094522476196,
        0.92344290018081665
      ],
      "min": [
        -0.70576894283294678,
        -0.99872714281082153,
        -0.39693814516067505
      ],
      "type": "VEC3"
    },
    {
      "bufferView": 2,
      "byteOffset": 33008,
      "componentType": 5126,
      "count": 250,
      "max": [
        0.9981803297996521,
        0.40477403998374939,
        0.93298721313476562,
        1
      ],
      "min": [
        -0.99770587682723999,
        -0.3980637788772583,
        -0.92436420917510986,
        1
      ],
      "type": "VEC4"
    },
    {
      "bufferView": 0,
      "byteOffset": 42192,
      "componentType": 5125,
      "count": 1080,
      "max": [
        249
      ],
      "min": [
        0
      ],
      "type": "SCALAR"
    }
  ],
  "asset": {
    "extras": {
      "author": "ScabbyCat96 (https://sketchfab.com/afzmtm)",
      "license": "CC-BY-4.0 (http://creativecommons.org/licenses/by/4.0/)",
      "source": "https://sketchfab.com/models/e61da62b2ffc4f9492432b1c3cf66cfb",
      "title": "Pokemon Torchic"
    },
    "generator": "Sketchfab-3.18.6",
    "version": "2.0"
  },
  "bufferViews": [
    {
      "buffer": 0,
      "byteLength": 46512,
      "byteOffset": 0,
      "name": "floatBufferViews",
      "target": 34963
    },
    {
      "buffer": 0,
      "byteLength": 55512,
      "byteOffset": 46512,
      "byteStride": 12,
      "name": "floatBufferViews",
      "target": 34962
    },
    {
      "buffer": 0,
      "byteLength": 37008,
      "byteOffset": 102024,
      "byteStride": 16,
      "name": "floatBufferViews",
      "target": 34962
    }
  ],
  "buffers": [
    {
      "byteLength": 139032,
      "uri": "scene.bin"
    }
  ],
  "extensionsRequired": [
    "KHR_materials_pbrSpecularGlossiness"
  ],
  "extensionsUsed": [
    "KHR_materials_pbrSpecularGlossiness"
  ],
  "materials": [
    {
      "doubleSided": true,
      "emissiveFactor": [
        0,
        0,
        0
      ],
      "extensions": {
        "KHR_materials_pbrSpecularGlossiness": {
          "diffuseFactor": [
            1,
            0.35999999999999999,
            0,
            1
          ],
          "glossinessFactor": 0.40000000000000002,
          "specularFactor": [
            0,
            0,
            0
          ]
        }
      },
      "name": "PajaritopCube1SG"
    },
    {
      "doubleSided": true,
      "emissiveFactor": [
        0,
        0,
        0
      ],
      "extensions": {
        "KHR_materials_pbrSpecularGlossiness": {
          "diffuseFactor": [
            1,
            0.54000000000000004,
            0,
            1
          ],
          "glossinessFactor": 0.40000000000000002,
          "specularFactor": [
            0,
            0,
            0
          ]
        }
      },
      "name": "PajaritopCube2SG"
    },
    {
      "doubleSided": true,
      "emissiveFactor": [
        0,
        0,
        0
      ],
      "extensions": {
        "KHR_materials_pbrSpecularGlossiness": {
          "diffuseFactor": [
            1,
            0.54000000000000004,
            0,
            1
          ],
          "glossinessFactor": 0.40000000000000002,
          "specularFactor": [
            0,
            0,
            0
          ]
        }
      },
      "name": "PajaritopCube4SG"
    },
    {
      "doubleSided": true,
      "emissiveFactor": [
        0,
        0,
        0
      ],
      "extensions": {
        "KHR_materials_pbrSpecularGlossiness": {
          "diffuseFactor": [
            1,
            1,
            1,
            1
          ],
          "glossinessFactor": 0.5844791412,
          "specularFactor": [
            0.42802085880000001,
            0.42802085880000001,
            0.42802085880000001
          ]
        }
      },
      "name": "PajaritopSphere2SG"
    },
    {
      "doubleSided": true,
      "emissiveFactor": [
        0,
        0,
        0
      ],
      "extensions": {
        "KHR_materials_pbrSpecularGlossiness": {
          "diffuseFactor": [
            0,
            0,
            0,
            1
          ],
          "glossinessFactor": 0.54072914119999993,
          "specularFactor": [
            0.24052085879999999,
            0.24052085879999999,
            0.24052085879999999
          ]
        }
      },
      "name": "PajaritopSphere2SG1"
    }
  ],
  "meshes": [
    {
      "primitives": [
        {
          "attributes": {
            "NORMAL": 1,
            "POSITION": 0,
            "TANGENT": 2
          },
          "indices": 3,
          "material": 0,
          "mode": 4
        }
      ]
    },
    {
      "primitives": [
        {
          "attributes": {
            "NORMAL": 5,
            "POSITION": 4,
            "TANGENT": 6
          },
          "indices": 7,
          "material": 1,
          "mode": 4
        }
      ]
    },
    {
      "primitives": [
        {
          "attributes": {
            "NORMAL": 9,
            "POSITION": 8,
            "TANGENT": 10
          },
          "indices": 11,
          "material": 2,
          "mode": 4
        }
      ]
    },
    {
      "primitives": [
        {
          "attributes": {
            "NORMAL": 13,
            "POSITION": 12,
            "TANGENT": 14
          },
          "indices": 15,
          "material": 3,
          "mode": 4
        }
      ]
    },
    {
      "primitives": [
        {
          "attributes": {
            "NORMAL": 17,
            "POSITION": 16,
            "TANGENT": 18
          },
          "indices": 19,
          "material": 4,
          "mode": 4
        }
      ]
    }
  ],
  "nodes": [
    {
      "children": [
        1
      ],
      "name": "RootNode (gltf orientation matrix)",
      "rotation": [
        -0.70710678118654746,
        -0,
        -0,
        0.70710678118654757
      ]
    },
    {
      "children": [
        2
      ],
      "name": "RootNode (model correction matrix)"
    },
    {
      "children": [
        3
      ],
      "matrix": [
        1,
        0,
        0,
        0,
        0,
        1,
        0,
        0,
        0,
        0,
        1,
        0,
        -0.75078099966049194,
        -0.8782610297203064,
        0.0049519999884068966,
        1
      ],
      "name": "pokemon.obj.cleaner.gles"
    },
    {
      "children": [
        4,
        5,
        6,
        7,
        8
      ],
      "name": ""
    },
    {
      "mesh": 0,
      "name": ""
    },
    {
      "mesh": 1,
      "name": ""
    },
    {
      "mesh": 2,
      "name": ""
    },
    {
      "mesh": 3,
      "name": ""
    },
    {
      "mesh": 4,
      "name": ""
    }
  ],
  "scene": 0,
  "scenes": [
    {
      "name": "OSG_Scene",
      "nodes": [
        0
      ]
    }
  ]
}

